<?xml version="1.0" standalone="no"?>
<!DOCTYPE svg PUBLIC "-//W3C//DTD SVG 20010904//EN"
 "http://www.w3.org/TR/2001/REC-SVG-20010904/DTD/svg10.dtd">
<svg version="1.0" xmlns="http://www.w3.org/2000/svg"
 width="727.000000pt" height="727.000000pt" viewBox="0 0 727.000000 727.000000"
 preserveAspectRatio="xMidYMid meet">
<metadata>
Created by potrace 1.14, written by Peter Selinger 2001-2017
</metadata>
<g transform="translate(0.000000,727.000000) scale(0.100000,-0.100000)"
fill="#000000" stroke="none">
<path d="M3548 6362 c-9 -2 -18 -12 -21 -23 -3 -10 -2 -17 3 -14 4 3 10 -3 12
-13 4 -15 1 -18 -18 -14 -13 2 -24 9 -24 16 0 6 -5 4 -10 -4 -6 -10 -10 -11
-10 -2 0 6 -7 12 -16 12 -8 0 -13 4 -10 8 3 5 -1 9 -9 9 -8 0 -13 -3 -10 -5 8
-8 -46 -32 -58 -25 -6 4 -8 0 -4 -9 4 -12 1 -14 -15 -10 -15 4 -19 2 -13 -7 6
-10 2 -11 -15 -6 -19 6 -22 4 -17 -9 4 -10 3 -14 -3 -11 -5 3 -14 -4 -20 -15
-6 -11 -14 -19 -18 -17 -4 3 -17 -6 -30 -19 -12 -13 -19 -24 -15 -24 3 0 -6
-13 -22 -30 -15 -16 -31 -27 -35 -25 -11 7 -33 -22 -26 -33 3 -5 -4 -8 -16 -7
-12 1 -30 -7 -40 -17 -10 -10 -24 -16 -30 -12 -6 4 -8 3 -5 -3 4 -6 0 -14 -9
-17 -8 -3 -12 -10 -9 -16 3 -5 0 -7 -8 -4 -8 3 -18 0 -22 -5 -3 -6 -11 -9 -16
-6 -5 3 -6 -1 -3 -9 4 -10 -2 -15 -17 -18 -13 -2 -29 -13 -35 -26 -6 -12 -15
-26 -19 -30 -5 -4 -5 -1 -1 6 9 15 -20 16 -30 0 -4 -7 -3 -8 4 -4 7 4 12 5 12
2 0 -3 -10 -10 -21 -17 -17 -9 -20 -8 -14 2 6 8 4 10 -4 5 -7 -5 -10 -14 -7
-22 3 -9 0 -11 -11 -7 -12 5 -14 3 -8 -8 8 -12 6 -12 -8 -1 -14 12 -16 11 -12
-7 3 -19 2 -20 -18 -9 -21 11 -21 10 -7 -7 8 -10 10 -16 3 -12 -6 4 -18 1 -26
-7 -8 -8 -17 -12 -21 -9 -3 4 -6 1 -6 -6 0 -7 -7 -11 -14 -8 -9 4 -17 -2 -21
-14 -4 -10 -11 -17 -16 -14 -5 4 -9 1 -9 -6 0 -7 -7 -4 -15 7 -13 16 -14 17
-9 1 4 -10 3 -17 -2 -16 -22 4 -34 -2 -34 -18 0 -15 -2 -16 -10 -3 -8 13 -11
13 -22 1 -9 -10 -10 -12 -1 -7 9 5 11 2 7 -9 -5 -13 -9 -13 -22 -3 -12 10 -14
10 -8 1 9 -17 -24 -51 -46 -48 -9 2 -19 -3 -22 -11 -3 -8 -16 -14 -30 -14 -14
0 -28 -5 -32 -12 -5 -7 -3 -8 6 -3 9 5 11 4 6 -4 -6 -9 -11 -9 -24 1 -12 10
-14 10 -8 1 4 -7 3 -13 -3 -13 -15 0 -61 -45 -61 -60 0 -7 -8 -10 -20 -7 -11
3 -18 0 -17 -6 1 -6 -9 -13 -22 -15 -19 -3 -21 -6 -10 -13 11 -7 11 -9 1 -9
-7 0 -10 -4 -7 -10 3 -5 0 -7 -8 -4 -8 3 -18 0 -23 -7 -4 -8 -3 -10 4 -5 17
10 15 -3 -2 -20 -17 -17 -30 -19 -20 -2 4 7 3 8 -5 4 -9 -6 -9 -11 -1 -21 9
-11 7 -13 -15 -9 -19 3 -24 1 -19 -7 5 -9 2 -10 -9 -6 -9 3 -16 3 -15 -1 4
-14 -23 -52 -33 -47 -5 4 -9 3 -8 -2 3 -20 -2 -34 -11 -28 -5 3 -10 1 -10 -5
0 -6 -4 -8 -10 -5 -6 3 -7 -1 -4 -9 4 -11 0 -16 -10 -16 -9 0 -16 -7 -16 -15
0 -8 -6 -14 -12 -13 -7 2 -12 -3 -10 -9 1 -7 -3 -13 -9 -13 -5 0 -7 -4 -4 -10
4 -6 -1 -7 -11 -3 -11 4 -15 3 -10 -5 3 -6 2 -13 -4 -17 -5 -3 -10 2 -11 12 0
12 -4 8 -11 -10 -8 -21 -15 -27 -29 -24 -11 3 -17 1 -14 -4 3 -4 -3 -17 -14
-28 -11 -11 -16 -23 -13 -27 4 -5 -1 -2 -11 5 -15 12 -17 12 -10 -4 5 -15 3
-17 -11 -12 -13 5 -17 3 -13 -7 4 -9 -2 -16 -15 -20 -18 -4 -19 -7 -8 -20 7
-9 8 -16 2 -16 -5 0 -12 -10 -15 -22 -4 -12 -9 -19 -12 -16 -4 3 -1 17 5 30
11 23 11 23 -8 -1 -11 -14 -18 -31 -15 -38 3 -8 0 -13 -8 -11 -8 2 -13 -4 -13
-13 1 -9 -6 -16 -14 -15 -9 0 -21 -9 -27 -21 -7 -13 -15 -20 -18 -16 -4 3 -7
-5 -7 -18 0 -19 -2 -21 -10 -9 -8 13 -10 12 -10 -2 0 -10 -7 -18 -15 -18 -8 0
-15 -4 -15 -10 0 -5 -9 -10 -20 -10 -10 0 -24 -9 -30 -20 -9 -16 -8 -19 7 -14
10 3 7 -1 -6 -9 -18 -11 -21 -16 -10 -21 8 -3 4 -4 -8 -2 -16 3 -20 0 -16 -12
5 -11 3 -13 -7 -7 -10 6 -12 4 -6 -11 4 -10 4 -15 0 -11 -4 4 -13 -1 -21 -11
-13 -15 -13 -15 -7 8 3 14 3 22 -1 18 -11 -11 -16 -70 -6 -63 5 3 13 0 17 -6
4 -8 3 -9 -5 -5 -6 4 -14 0 -18 -10 -5 -15 -7 -14 -17 3 -11 19 -12 19 -34 -8
-13 -16 -19 -29 -13 -29 6 0 11 -4 11 -10 0 -5 -7 -7 -16 -3 -13 5 -15 3 -7
-13 11 -20 6 -47 -6 -40 -10 6 -6 -42 4 -51 4 -5 6 -3 2 2 -8 15 8 40 17 26 4
-6 3 -11 -3 -11 -5 0 -8 -9 -6 -20 2 -11 -4 -25 -13 -31 -16 -10 -16 -10 1 -5
14 5 16 1 11 -21 -4 -16 -3 -24 3 -20 5 3 10 0 10 -8 0 -8 -4 -12 -9 -9 -4 3
-8 0 -8 -5 0 -6 4 -11 8 -11 4 0 9 -9 10 -20 4 -43 6 -50 13 -50 4 0 9 -7 12
-14 4 -10 1 -13 -7 -10 -7 3 -13 -2 -13 -10 0 -8 3 -15 6 -14 21 2 22 -4 5
-18 -18 -14 -18 -15 6 -10 14 3 19 3 12 0 -6 -3 -9 -11 -6 -16 4 -6 3 -8 -3
-5 -6 4 -9 -4 -6 -21 2 -15 4 -39 4 -54 0 -16 5 -28 10 -28 9 0 7 -23 -5 -52
-4 -9 -5 -22 -1 -27 4 -7 -1 -9 -12 -5 -13 4 -11 0 7 -16 14 -12 19 -18 11
-14 -9 4 -12 2 -9 -7 3 -8 0 -18 -6 -24 -6 -5 -9 -9 -7 -8 2 2 10 -2 18 -8 9
-8 10 -15 3 -24 -11 -14 -9 -83 4 -103 4 -7 2 -20 -6 -29 -11 -15 -11 -16 4
-10 10 3 20 1 24 -5 4 -6 3 -8 -4 -4 -17 10 -21 -18 -4 -37 14 -16 14 -17 1
-12 -12 4 -15 0 -13 -17 1 -13 3 -25 4 -28 1 -3 2 -8 1 -12 0 -5 3 -8 8 -8 5
0 12 -7 15 -16 5 -13 3 -14 -7 -6 -10 8 -13 6 -14 -9 -1 -15 2 -19 14 -15 13
5 13 2 -2 -20 -17 -26 -17 -27 0 -20 15 5 16 4 5 -9 -11 -13 -7 -19 12 -16 8
1 4 -26 -6 -36 -4 -4 -6 -2 -4 6 2 7 -4 16 -12 18 -13 4 -13 3 0 -6 8 -6 11
-11 6 -11 -5 0 -1 -10 10 -21 19 -22 19 -22 -4 -10 -22 12 -22 11 -10 -9 11
-17 11 -22 -1 -29 -11 -7 -10 -11 5 -20 18 -10 18 -10 1 -11 -10 0 -15 -5 -12
-10 4 -6 11 -8 16 -5 5 3 6 -2 2 -11 -4 -12 -3 -15 5 -10 8 5 10 2 6 -8 -3 -9
-11 -13 -18 -10 -6 3 -3 -1 7 -9 14 -12 16 -19 7 -42 -10 -26 -9 -27 7 -14 14
12 16 12 8 0 -10 -18 -14 -71 -5 -71 3 0 12 6 20 13 12 10 12 9 2 -4 -6 -9 -8
-20 -4 -24 4 -5 1 -5 -7 0 -9 5 -12 3 -9 -6 3 -8 10 -13 15 -12 5 1 7 -11 5
-28 -2 -16 -8 -27 -12 -24 -10 6 -6 -37 6 -58 14 -24 6 -69 -10 -60 -6 3 -3
-3 7 -14 14 -16 15 -23 6 -29 -8 -4 -10 -3 -5 4 4 7 2 12 -3 12 -6 0 -11 -7
-11 -15 0 -8 4 -15 10 -15 5 0 9 -6 7 -12 -1 -7 3 -12 10 -11 8 2 11 -10 9
-37 -3 -37 -2 -38 17 -28 20 10 20 10 -1 -17 -18 -22 -20 -31 -10 -49 10 -19
10 -20 -6 -7 -15 12 -17 12 -14 0 2 -8 12 -19 23 -26 l20 -12 -20 -1 c-11 -1
-15 -4 -8 -6 9 -4 9 -11 1 -29 -6 -14 -16 -22 -21 -18 -6 4 -8 0 -4 -10 4 -10
1 -17 -6 -17 -8 0 -6 -4 3 -10 13 -9 13 -10 0 -10 -9 0 -11 -3 -4 -8 6 -4 14
-15 17 -25 4 -11 16 -21 28 -24 16 -4 17 -8 7 -14 -10 -6 -8 -9 7 -9 17 0 17
-2 5 -10 -12 -8 -12 -10 -1 -10 8 0 11 -7 8 -20 -4 -15 0 -20 16 -20 20 0 20
-1 2 -13 -13 -10 -15 -16 -6 -21 6 -4 8 -12 5 -18 -4 -7 -2 -8 4 -4 6 4 9 14
6 24 -5 14 -4 14 4 3 7 -10 7 -21 1 -33 -13 -25 -7 -103 8 -103 6 0 15 -3 19
-7 3 -4 -3 -6 -15 -3 -11 2 -21 0 -21 -6 0 -5 5 -9 11 -9 6 0 9 -7 5 -15 -3
-8 -1 -15 4 -15 6 0 10 -5 10 -11 0 -5 -4 -7 -10 -4 -14 9 -12 -18 3 -34 10
-11 10 -13 0 -7 -8 4 -14 2 -14 -6 -1 -7 -3 -23 -4 -35 -2 -20 5 -27 26 -25 3
1 6 -5 6 -13 0 -7 -7 -11 -16 -8 -9 3 -5 -5 9 -16 16 -14 19 -19 8 -15 -21 7
-24 -6 -5 -25 10 -10 8 -11 -8 -5 -17 7 -18 5 -8 -7 10 -12 9 -20 -2 -36 -20
-28 -10 -59 14 -41 13 10 14 10 4 -2 -17 -18 -17 -43 0 -34 6 4 9 4 5 -1 -4
-4 -3 -14 4 -22 9 -11 8 -13 -2 -11 -7 2 -15 -3 -18 -11 -3 -9 0 -11 8 -6 9 6
9 3 1 -13 -8 -15 -8 -22 2 -25 9 -4 9 -6 0 -6 -7 -1 -13 -6 -13 -12 0 -5 5 -7
11 -3 7 4 10 1 7 -7 -3 -8 -1 -23 5 -34 10 -19 9 -19 -9 -5 -18 14 -18 14 -1
-6 10 -12 15 -28 11 -38 -3 -9 -1 -16 6 -16 6 0 8 5 4 12 -4 6 -3 8 4 5 5 -4
8 -17 4 -29 -4 -16 -2 -19 9 -13 12 8 12 6 0 -8 -11 -15 -11 -19 6 -34 10 -10
13 -14 6 -9 -19 12 -16 2 7 -24 11 -13 20 -29 20 -36 0 -7 5 -16 12 -20 7 -4
8 -3 4 4 -10 16 36 16 53 0 9 -8 11 -8 8 -2 -5 8 2 11 18 10 14 0 25 -4 25 -7
0 -3 7 -6 15 -6 8 0 15 4 15 9 0 5 9 4 19 -2 11 -5 22 -6 25 -1 3 4 37 8 75 7
38 0 67 2 65 6 -3 4 9 6 25 4 18 -2 31 1 31 8 0 6 4 5 9 -3 7 -11 9 -11 14 0
4 9 6 10 6 2 1 -7 7 -10 14 -7 8 3 20 -2 27 -11 12 -14 15 -14 32 2 18 16 18
16 12 0 -5 -13 -2 -16 10 -11 9 3 16 10 16 16 0 5 4 7 9 4 4 -3 17 1 27 8 13
10 23 11 31 4 9 -7 13 -7 13 0 0 6 7 9 16 5 9 -3 20 0 26 8 7 10 8 8 4 -10
l-5 -23 20 21 c20 21 35 29 25 12 -11 -17 23 -20 36 -3 12 16 11 16 -7 2 -19
-14 -19 -14 -6 3 11 14 16 15 29 5 13 -11 15 -10 10 3 -4 10 -1 16 8 16 9 0
13 -6 9 -16 -5 -12 -2 -11 14 3 14 13 21 14 27 5 5 -8 3 -10 -6 -4 -8 5 -11 4
-7 -2 4 -6 20 -9 37 -7 21 3 29 0 24 -7 -4 -7 -1 -10 7 -7 8 3 22 1 33 -4 12
-7 16 -7 12 0 -4 6 2 8 14 5 11 -3 20 -10 20 -15 0 -6 7 -5 15 2 12 10 15 10
15 -1 0 -9 3 -10 8 -3 4 6 18 10 32 10 14 0 36 4 50 8 17 5 21 4 11 -2 -11 -8
-8 -10 12 -9 14 1 23 5 20 10 -2 4 3 7 12 7 10 0 13 -5 9 -12 -5 -9 -2 -9 9 1
9 7 17 10 17 7 0 -4 10 -2 21 5 15 8 19 8 15 0 -4 -6 -3 -11 3 -11 5 0 12 4
16 9 3 5 21 8 40 6 19 -2 35 1 35 7 0 5 5 6 10 3 6 -3 10 -1 10 5 0 6 5 8 10
5 6 -3 10 -1 10 5 0 7 7 9 16 6 9 -4 13 -2 8 5 -4 8 1 9 15 4 14 -4 21 -2 21
7 0 10 3 9 10 -2 8 -13 10 -12 10 4 0 16 2 17 17 5 14 -12 16 -12 8 0 -6 11
-3 13 13 9 16 -5 22 -2 22 10 0 13 3 12 16 -4 8 -10 13 -13 9 -6 -9 18 2 15
30 -10 13 -11 22 -26 19 -32 -3 -6 2 -2 10 8 10 13 16 15 16 7 0 -11 3 -11 17
0 11 10 14 10 9 2 -4 -7 -3 -13 3 -13 5 0 13 5 17 11 4 8 9 7 15 -2 7 -11 9
-11 9 -1 0 7 4 11 8 8 4 -2 14 -1 22 4 10 6 20 4 31 -6 13 -12 19 -12 25 -3 4
8 3 10 -4 5 -18 -11 -14 0 5 15 9 8 14 9 10 3 -4 -7 0 -15 9 -18 22 -9 24 -8
24 10 0 8 5 12 10 9 6 -4 7 -12 3 -18 -5 -9 -3 -9 8 -1 8 5 24 9 37 8 12 0 22
3 22 7 0 5 5 9 11 9 5 0 7 -4 4 -10 -4 -6 4 -6 21 0 15 6 34 8 41 6 8 -3 11
-2 8 3 -3 5 -1 12 5 16 5 3 10 1 10 -5 0 -6 5 -8 10 -5 6 4 8 10 5 15 -3 5 0
12 6 16 8 4 9 3 5 -4 -5 -8 2 -12 19 -12 21 0 26 4 21 16 -5 13 -4 14 7 6 8
-7 18 -8 22 -4 5 4 6 2 2 -3 -3 -6 2 -16 11 -21 20 -13 77 7 65 21 -5 5 -1 4
7 -2 18 -13 91 -22 84 -11 -3 4 0 8 5 8 6 0 11 -6 11 -12 0 -10 3 -9 9 1 6 9
11 10 15 2 4 -6 12 -8 18 -5 9 6 32 8 182 18 26 2 51 7 55 12 7 11 37 12 47 1
4 -4 16 1 26 10 15 13 18 14 13 2 -6 -17 31 -24 40 -8 4 5 11 7 16 4 5 -4 9 0
9 7 0 8 5 6 11 -5 11 -18 29 -14 29 6 0 7 -4 6 -10 -3 -5 -8 -10 -10 -10 -4 0
6 8 18 17 25 10 9 14 9 10 2 -9 -15 24 -34 41 -24 7 4 26 7 42 6 16 -1 27 2
24 7 -3 4 0 8 5 8 6 0 11 -4 11 -9 0 -5 11 -8 24 -7 13 0 22 4 19 9 -2 4 5 7
16 7 12 0 21 -6 21 -12 0 -10 3 -9 9 1 5 7 14 10 20 7 6 -4 11 -1 11 6 0 9 3
9 10 -2 5 -8 10 -10 10 -5 0 6 11 11 25 11 14 1 23 -2 20 -6 -3 -5 -1 -11 5
-15 5 -3 10 -2 10 3 0 5 7 9 15 9 8 0 12 -4 10 -8 -3 -4 2 -9 10 -13 8 -3 15
-1 15 5 0 6 7 6 19 -1 26 -13 40 -13 21 1 -12 9 -11 10 8 6 12 -3 22 0 22 5 0
6 8 4 17 -3 15 -12 16 -12 10 6 -7 19 -7 19 8 1 12 -16 17 -17 30 -6 8 7 26
10 40 8 18 -4 25 -1 26 11 0 12 2 11 9 -4 7 -18 8 -19 15 -2 4 9 11 17 17 17
5 0 7 -4 4 -9 -3 -5 3 -11 13 -14 12 -3 18 0 15 7 -3 7 8 12 26 12 16 1 30 -1
30 -5 0 -4 10 -7 21 -8 20 -2 20 -1 4 11 -16 11 -14 12 15 8 21 -3 35 0 41 9
7 11 9 11 9 1 0 -10 3 -10 14 0 8 7 11 18 8 23 -3 6 1 4 10 -3 14 -11 18 -10
27 5 7 13 10 14 11 4 0 -11 4 -10 16 5 8 10 13 13 9 7 -3 -7 -1 -13 4 -13 6 0
11 5 11 11 0 6 6 9 13 6 6 -2 18 3 25 12 8 9 10 10 6 2 -4 -9 -2 -12 7 -9 8 3
13 12 11 19 -1 9 3 8 11 -3 8 -10 20 -18 26 -18 7 0 9 -5 5 -12 -4 -7 -3 -8 4
-4 17 10 15 24 -5 29 -13 3 -12 5 5 6 15 1 21 5 16 13 -4 6 -3 9 2 6 5 -4 23
0 39 7 24 11 26 14 10 15 -18 1 -17 2 5 14 14 8 29 12 35 8 5 -3 4 2 -4 11 -8
10 -11 20 -7 24 3 3 6 1 6 -5 0 -7 7 -12 15 -12 9 0 12 6 8 17 -4 10 -2 14 5
9 13 -8 35 28 24 39 -4 3 0 5 8 3 8 -2 15 4 15 12 0 8 6 14 13 13 12 -3 7 17
-16 57 -13 23 -13 24 2 6 15 -19 16 -18 12 15 -2 18 -4 38 -5 42 0 5 -7 5 -13
2 -7 -4 -4 1 6 9 11 9 15 16 9 16 -6 0 -10 8 -8 18 1 9 -2 23 -8 30 -6 8 -5
12 4 12 8 0 5 6 -7 15 -19 15 -19 15 1 8 l20 -6 -20 23 c-11 13 -14 20 -7 16
15 -9 16 6 1 21 -8 8 -8 13 0 17 6 4 11 12 11 17 0 6 -6 7 -12 3 -8 -5 -7 0 2
11 12 15 12 17 1 10 -11 -6 -13 -4 -8 7 3 9 -1 25 -9 36 -13 19 -12 23 8 43
l23 21 -25 -7 c-18 -4 -21 -3 -11 3 8 6 11 17 8 26 -4 11 -1 16 11 16 10 0 13
3 7 8 -16 12 -16 32 0 32 8 0 15 5 15 11 0 5 -4 7 -10 4 -5 -3 -10 1 -10 10 0
9 4 14 9 11 11 -7 8 21 -4 31 -4 4 -5 2 0 -6 6 -10 4 -12 -4 -7 -7 5 -9 12 -3
19 11 15 12 47 0 47 -4 0 -8 5 -8 11 0 5 5 7 10 4 6 -3 10 -2 10 4 0 5 -6 12
-12 14 -10 4 -10 6 0 6 7 1 11 5 7 11 -3 5 -13 7 -23 4 -14 -5 -15 -4 -2 5 8
6 11 11 5 11 -5 0 -3 5 5 10 13 8 12 10 -3 10 -10 0 -15 5 -12 10 4 6 12 8 18
4 7 -3 5 0 -3 8 -20 18 -23 35 -8 61 10 20 10 21 -6 8 -14 -12 -16 -12 -10 4
5 13 4 16 -4 11 -7 -4 -12 -5 -12 -1 0 3 10 10 23 15 20 8 20 9 2 10 l-20 1
20 15 c20 16 20 16 -1 10 -14 -4 -21 -2 -21 8 0 9 4 13 9 10 16 -10 8 9 -9 22
-17 13 -17 14 0 8 9 -3 17 -1 17 5 0 6 -5 11 -12 11 -6 0 -3 7 8 15 16 13 16
14 2 9 -21 -7 -24 6 -6 24 9 9 9 15 -1 25 -10 10 -11 8 -5 -8 8 -21 6 -21 -16
9 -10 13 -10 17 -2 12 7 -4 12 -2 12 4 0 6 4 8 10 5 6 -3 7 1 4 9 -3 9 -11 13
-18 9 -6 -3 -2 4 9 17 11 13 14 20 6 15 -10 -6 -12 -4 -5 6 12 20 14 39 3 39
-5 0 -9 5 -9 11 0 5 4 8 8 5 5 -3 9 1 9 9 0 8 -4 12 -8 9 -4 -2 -8 4 -8 13 0
10 -2 34 -4 53 -3 23 1 42 12 55 14 17 14 18 0 8 -16 -13 -16 -8 -10 85 1 8 6
10 14 6 9 -6 9 -5 0 7 -7 9 -8 20 -3 29 5 8 6 19 2 25 -10 15 -12 34 -13 87 0
34 -5 51 -17 59 -15 9 -15 10 2 5 14 -5 17 -3 11 11 -13 34 -14 53 -2 53 7 0
7 4 -3 9 -8 6 -18 7 -24 4 -5 -4 -6 -1 -2 6 5 7 14 10 22 7 12 -4 12 -2 4 14
-6 11 -10 26 -9 33 3 25 -1 38 -12 32 -6 -4 -5 3 3 14 11 18 11 23 -1 30 -8 5
-9 11 -3 15 14 8 9 36 -9 47 -8 5 -9 9 -3 9 7 0 14 11 16 25 4 20 3 23 -8 14
-8 -6 -11 -16 -7 -22 3 -6 1 -7 -6 -3 -9 6 -9 11 -1 21 7 8 9 24 5 36 -6 16
-4 20 6 13 12 -6 12 -5 0 9 -7 9 -10 17 -6 17 4 0 2 7 -5 15 -6 8 -12 30 -12
50 0 20 -5 35 -11 35 -7 0 -5 5 3 10 13 9 13 10 0 10 -13 0 -13 1 0 10 12 8
12 10 1 10 -9 0 -10 4 -4 13 5 6 8 18 7 25 -1 6 -2 16 -3 22 0 5 -9 7 -18 4
-11 -3 -10 0 3 7 l21 11 -23 25 c-13 14 -21 30 -18 35 4 6 0 15 -7 20 -11 8
-10 9 4 4 9 -3 17 -1 17 4 0 9 -15 14 -33 11 -5 -1 -5 4 -1 10 3 6 0 16 -7 21
-10 7 -8 8 9 5 21 -5 22 -4 10 11 -8 10 -13 35 -12 59 1 24 -2 40 -7 37 -13
-8 -11 10 4 25 10 11 9 12 -1 7 -9 -6 -11 -1 -8 18 4 20 1 24 -12 19 -10 -4
-12 -8 -4 -11 7 -2 9 -8 6 -14 -3 -5 -12 -2 -19 9 -15 21 -18 34 -7 31 4 -2 6
-7 4 -11 -1 -5 2 -6 7 -3 5 3 7 16 4 29 -4 18 -3 19 6 7 13 -19 14 -1 1 20 -6
10 -10 11 -10 3 0 -7 -5 -13 -11 -13 -6 0 -8 9 -4 22 6 17 4 20 -11 14 -10 -4
-15 -4 -11 0 4 4 1 14 -6 22 -6 9 -7 13 -1 9 7 -4 10 10 9 41 -1 25 -7 48 -14
50 -6 2 -11 8 -11 13 0 6 5 7 12 3 7 -4 8 -3 4 4 -4 6 -13 9 -21 5 -10 -3 -15
1 -15 12 0 10 5 14 13 10 6 -4 3 1 -8 10 -11 9 -19 22 -17 29 1 8 -5 17 -14
20 -13 5 -14 4 -6 -7 9 -10 8 -14 -2 -14 -15 0 -16 14 -3 35 5 7 2 14 -7 18
-9 3 -13 10 -10 15 3 5 0 9 -5 9 -6 0 -11 -6 -11 -12 -1 -7 -9 4 -19 25 -9 20
-20 34 -24 30 -4 -3 -7 -1 -7 5 0 5 6 13 13 16 6 4 2 4 -10 2 -12 -2 -22 -1
-21 3 3 24 -4 51 -13 51 -5 0 -8 -4 -5 -8 3 -5 -1 -9 -9 -9 -11 0 -12 3 -3 14
9 11 7 18 -7 31 -18 16 -18 16 -5 -3 14 -19 14 -19 -6 -2 -11 9 -24 14 -29 10
-4 -5 -3 2 4 14 14 27 14 33 0 33 -5 0 -7 -4 -4 -10 10 -17 -12 -11 -26 7 -8
9 -9 14 -2 10 13 -8 12 18 -2 30 -4 4 -5 2 -1 -4 4 -7 2 -13 -3 -13 -10 0 -16
21 -12 43 0 4 -2 6 -6 6 -5 -1 -11 0 -15 1 -13 4 -28 7 -39 9 -6 1 -8 10 -3
23 6 20 5 21 -10 9 -9 -7 -16 -9 -16 -4 0 6 -16 18 -35 28 -19 11 -32 21 -30
23 2 3 17 -3 32 -12 22 -14 20 -11 -7 13 -19 17 -39 31 -43 31 -5 0 -5 4 -2
10 3 6 -1 7 -10 3 -14 -5 -14 -8 -3 -15 10 -8 10 -9 -2 -5 -9 2 -14 14 -13 28
1 13 0 19 -3 12 -3 -7 -12 -9 -20 -6 -12 4 -12 8 -2 21 10 12 10 14 0 8 -18
-11 -52 3 -52 20 0 8 -4 12 -10 9 -5 -3 -10 -1 -10 6 0 7 -3 9 -7 6 -3 -4 -11
1 -18 10 -7 9 -23 18 -35 20 -13 2 -30 9 -38 16 -8 6 -24 11 -34 9 -13 -2 -21
3 -25 16 -2 10 -20 26 -39 36 -19 9 -32 21 -29 26 3 6 -1 7 -10 4 -10 -4 -14
-2 -10 8 3 8 -1 20 -9 27 -8 7 -12 21 -8 33 4 17 2 20 -12 15 -14 -6 -16 -3
-11 14 5 16 4 19 -6 14 -9 -6 -11 -3 -6 9 4 10 3 15 -4 11 -16 -11 -37 14 -34
41 2 21 0 22 -13 12 -13 -10 -14 -10 -8 0 4 6 3 12 -3 12 -6 0 -8 7 -4 16 3 9
0 19 -7 24 -9 6 -10 12 0 30 11 20 10 22 -4 17 -14 -6 -15 -3 -5 14 8 17 8 23
-2 30 -7 4 -18 4 -24 0 -19 -15 -46 -21 -39 -10 4 8 -1 9 -17 5 -24 -7 -24 -7
1 8 25 14 25 14 -13 11 -29 -3 -37 0 -34 10 4 8 -1 11 -12 8 -10 -2 -25 2 -33
11 -9 8 -19 12 -23 8 -5 -4 -5 -2 -2 4 4 7 -1 18 -10 25 -15 12 -16 12 -9 -6
7 -18 5 -18 -17 3 -13 12 -26 19 -30 16 -3 -3 -3 4 0 17 5 17 3 21 -9 16 -22
-8 -30 3 -16 20 6 7 8 16 4 20 -3 3 -6 1 -6 -5 0 -21 -18 -13 -26 10 -4 13
-14 29 -23 35 -14 12 -14 12 4 7 17 -4 16 -3 -3 8 -12 8 -19 18 -15 23 4 5 -1
3 -12 -5 -11 -8 -23 -19 -26 -23 -3 -5 -9 -1 -12 8 -4 10 -3 14 4 9 8 -4 7 0
0 15 -15 28 -18 27 -16 -8 2 -28 1 -29 -30 -15 -18 7 -35 10 -39 7 -3 -4 -6
-1 -6 5 0 16 -27 15 -34 0 -2 -7 -4 -2 -3 12 2 20 -2 24 -20 22 -12 -2 -24 2
-28 7 -4 7 1 9 12 5 15 -5 15 -4 3 4 -8 6 -17 9 -21 6 -4 -2 -10 2 -12 8 -4
10 -6 10 -6 1 -1 -7 -6 -13 -12 -13 -5 0 -7 5 -4 10 3 6 -3 10 -14 10 -11 0
-23 5 -27 12 -5 7 -3 8 7 3 12 -8 12 -6 0 8 -15 18 -26 23 -16 7 3 -5 1 -10
-4 -10 -6 0 -11 6 -11 13 0 8 -4 7 -10 -3 -8 -12 -10 -12 -10 -1 0 8 -7 11
-20 8 -11 -3 -23 -1 -26 4 -5 8 -74 9 -116 1z m1210 -817 c-3 -3 -9 2 -12 12
-6 14 -5 15 5 6 7 -7 10 -15 7 -18z m313 -232 c13 -16 12 -17 -3 -4 -10 7 -18
15 -18 17 0 8 8 3 21 -13z m-3371 -419 c0 -8 -19 -13 -24 -6 -3 5 1 9 9 9 8 0
15 -2 15 -3z m3687 -30 c-9 -9 -28 6 -21 18 4 6 10 6 17 -1 6 -6 8 -13 4 -17z
m-3740 10 c-3 -3 -12 -4 -19 -1 -8 3 -5 6 6 6 11 1 17 -2 13 -5z m-147 -158
c0 -2 -8 -10 -17 -17 -16 -13 -17 -12 -4 4 13 16 21 21 21 13z m-10 -286 c0
-5 -5 -10 -11 -10 -5 0 -7 5 -4 10 3 6 8 10 11 10 2 0 4 -4 4 -10z m4100 -794
c0 -3 -4 -8 -10 -11 -5 -3 -10 -1 -10 4 0 6 5 11 10 11 6 0 10 -2 10 -4z m3
-41 c-3 -9 -8 -14 -10 -11 -3 3 -2 9 2 15 9 16 15 13 8 -4z m-3969 -683 c2 -4
-4 -8 -14 -8 -10 0 -16 4 -14 8 3 4 9 8 14 8 5 0 11 -4 14 -8z m53 -627 c0 -8
-4 -12 -9 -9 -5 3 -6 10 -3 15 9 13 12 11 12 -6z m2953 -389 c0 -2 -8 -10 -17
-17 -16 -13 -17 -12 -4 4 13 16 21 21 21 13z m-125 -15 c3 -5 2 -12 -3 -15 -5
-3 -9 1 -9 9 0 17 3 19 12 6z m-120 -21 c3 -5 1 -10 -4 -10 -6 0 -11 5 -11 10
0 6 2 10 4 10 3 0 8 -4 11 -10z m-535 -36 c0 -8 -19 -13 -24 -6 -3 5 1 9 9 9
8 0 15 -2 15 -3z"/>
<path d="M4535 5730 c3 -5 8 -10 11 -10 2 0 4 5 4 10 0 6 -5 10 -11 10 -5 0
-7 -4 -4 -10z"/>
<path d="M2475 5680 c-3 -5 -1 -10 4 -10 6 0 11 5 11 10 0 6 -2 10 -4 10 -3 0
-8 -4 -11 -10z"/>
<path d="M5260 5091 c0 -10 19 -25 25 -20 1 2 -3 10 -11 17 -8 7 -14 8 -14 3z"/>
<path d="M1485 4161 c-3 -5 -2 -12 3 -15 5 -3 9 1 9 9 0 17 -3 19 -12 6z"/>
<path d="M5590 3431 c0 -6 4 -13 10 -16 6 -3 7 1 4 9 -7 18 -14 21 -14 7z"/>
<path d="M5626 2562 c-3 -6 -1 -14 5 -17 14 -9 20 -2 10 14 -6 8 -11 9 -15 3z"/>
<path d="M5505 1980 c-3 -5 -2 -10 4 -10 5 0 13 5 16 10 3 6 2 10 -4 10 -5 0
-13 -4 -16 -10z"/>
<path d="M3880 1810 c-12 -7 -10 -9 7 -7 12 0 19 5 17 9 -6 10 -6 10 -24 -2z"/>
</g>
</svg>
